<?xml version="1.0" encoding="utf-8"?>
<!-- Generator: Adobe Illustrator 20.1.0, SVG Export Plug-In . SVG Version: 6.00 Build 0)  -->
<svg version="1.1" id="Layer_1" xmlns="http://www.w3.org/2000/svg" xmlns:xlink="http://www.w3.org/1999/xlink" x="0px" y="0px"
	 viewBox="0 0 198.4 198.4" style="enable-background:new 0 0 198.4 198.4;" xml:space="preserve">
<style type="text/css">
	.st0{fill:#2D4A7D;}
	.st1{fill:#77BEA4;}
	.st2{fill:#EC6464;}
</style>
<g>
	<path class="st0" d="M160.8,93.3l-8.9,3.8c-2.5,1.3-4.2,3.4-4.6,6.3c0,0,0,0,0,0.4c-0.4,2.5,0.8,5.1,2.5,6.7l7.6,6.3
		c-1.3,3.8-2.5,7.2-4.2,10.5l-8.4-1.3c-3-0.4-6.3,0.8-8.4,3l0,0c-1.3,1.3-1.7,3-2.1,4.6l0,0c0-0.4,0.8-5.1-2.5-8.4
		c-3-3.4-7.6-4.2-11.4-2.1l0.4-0.4c0.4-0.4,0.8-0.8,1.3-1.3c0.8-0.8,1.3-2.5,0.4-3.8l-1.3-2.1c-0.4-0.8-0.4-2.1,0-3.4l0,0
		c0.4-0.8,1.7-1.7,3-1.7h2.5c1.3,0,2.5-0.8,3-2.1c0-0.4,0.4-1.3,0.4-2.1c0.4-1.3,0-3-1.3-3.4l-2.1-1.3c-0.8-0.4-1.7-1.7-1.7-3l0,0
		c0-1.3,0.8-2.1,1.7-3l2.1-1.3c1.3-0.8,2.1-2.1,1.7-3.4c0-0.4,0-0.8-0.4-0.8c0-0.4,0-0.8-0.4-0.8c-0.4-1.3-1.7-2.5-3-2.5h-2.5
		c-1.3,0-2.1-0.8-3-1.7l0,0c-0.4-0.8-0.4-2.1,0-3.4l1.3-2.1c0.8-1.3,0.4-3-0.4-3.8c-0.4-0.4-0.8-0.8-1.3-1.3
		c-0.8-0.8-2.5-1.3-3.8-0.4l-0.8,1.3c-0.8,0.4-2.1,0.4-3.4,0l0,0c-0.8-0.4-1.7-1.7-1.7-3v-2.5c0-1.3-0.4-2.1-1.3-3
		c4.2,0.8,9.3,0,11-2.1c3-3.4,3-6.7,1.7-11c0.4,0.8,1.3,1.3,2.1,2.1l0,0c1.7,1.3,4.2,1.3,5.9,0.4l9.7-4.6c3,3,5.9,5.9,8.4,9.3
		l-5.5,8.4c-1.3,2.1-1.7,4.6-0.4,6.7l0,0c1.3,2.1,3,3.8,5.5,3.8l10.5,1.3C159.5,85.3,160.3,89.1,160.8,93.3z"/>
	<path class="st1" d="M134.6,137.2l3,8.9c-3,2.1-5.9,4.2-9.3,5.9l-6.3-5.5c-2.5-2.1-5.9-3-9.3-2.1l0,0c-3,0.8-5.5,3.4-6.3,6.7
		l-2.1,8.4c-1.7,0-3.4,0.4-5.5,0.4c-2.1,0-3.8,0-5.5-0.4l-2.1-8.4c-0.8-3-3.4-5.5-6.3-6.7l0,0c-3.4-0.8-6.7,0-9.3,2.1l-5.9,5.5
		c-3.4-1.7-6.3-3.8-9.3-5.9l3-8.9c0.8-3,0.4-5.9-1.7-8.4l0,0c-2.1-2.5-5.1-3.8-8.4-3l-8.4,1.3c-1.7-3.4-3.4-6.7-4.6-10.5l7.6-6.3
		c2.1-1.7,3-4.2,2.5-6.7c0,0,0,0,0-0.4c0-0.8-0.4-1.7-0.4-2.5c0.8,1.7,3.4,6.3,8.4,6.3s6.7-1.7,8.9-4.6c-0.4,0.8-0.4,1.3-0.4,2.1
		c0,0.4,0,0.8,0.4,0.8c0,0.4,0,0.8,0.4,0.8c0.4,1.3,1.7,2.5,3,2.5h2.5c1.3,0,2.1,0.8,3,1.7l0,0c0.4,0.8,0.4,2.1,0,3.4l-1.3,2.1
		c-0.8,1.3-0.4,3,0.4,3.8c0.4,0.4,0.8,0.8,1.3,1.3c0.8,0.8,2.5,1.3,3.8,0.4l2.1-1.3c0.8-0.4,2.1-0.4,3.4,0l0,0
		c0.8,0.4,1.7,1.7,1.7,3v2.5c0,1.3,0.8,2.5,2.1,3c0.4,0,1.3,0.4,2.1,0.4c1.3,0.4,3,0,3.4-1.3l1.3-2.1c0.4-0.8,1.7-1.7,3-1.7l0,0
		c1.3,0,2.1,0.8,3,1.7l1.3,2.1c0.8,1.3,2.1,2.1,3.4,1.7c0.4,0,0.8,0,0.8-0.4c0.4,0,0.8,0,0.8-0.4c1.3-0.4,2.5-1.7,2.5-3v-2.5
		c0-1.3,0.8-2.1,1.7-3l0,0c0.8-0.4,2.1-0.4,3.4,0l2.1,1.3c0.8,0.8,2.1,0.8,3.4,0l0,0c3.8-2.1,8.4-1.3,11.4,1.7
		c3.8,3.4,2.5,8,2.5,8.4l0,0C134.2,134.6,134.6,135.9,134.6,137.2z"/>
	<g id="XMLID_1_">
		<g>
			<path class="st2" d="M122.8,54.5c1.3,4.2,1.3,7.6-1.7,11c-1.7,2.1-6.7,3-11,2.1c-0.4,0-0.4-0.4-0.8-0.4c-0.4,0-1.3-0.4-2.1-0.4
				c-1.3-0.4-3,0.4-3.4,1.3l-1.3,2.1c-0.4,0.8-1.7,1.7-3,1.7l0,0c-1.3,0-2.1-0.8-3-1.7L95.4,68c-0.8-1.3-2.1-2.1-3.4-1.7
				c-0.4,0-0.8,0-0.8,0.4c-0.4,0-0.8,0-0.8,0.4c-1.3,0.4-2.5,1.7-2.5,3v2.5c0,1.3-0.8,2.1-1.7,3l0,0c-0.8,0.4-2.1,0.4-3.4,0
				l-2.1-1.3c-1.3-0.8-3-0.4-3.8,0.4c-0.4,0.4-0.8,0.8-1.3,1.3c-0.8,0.8-1.3,2.5-0.4,3.8l1.3,2.1c0.4,0.8,0.4,2.1,0,3.4l0,0
				c-0.4,0.8-1.7,1.7-3,1.7H71c-1.3,0-2.5,0.8-3,2.1c0,0.8-0.4,1.3-0.4,2.1c-0.4,1.3,0,3,1.3,3.4l2.1,1.3c0.8,0.4,1.7,1.7,1.7,3l0,0
				c0,1.3-0.8,2.1-1.7,3l-2.1,1.3c-0.4,0.4-0.8,0.4-1.3,0.8c0,0,0,0,0,0.4c-1.7,3-3.8,4.6-8.9,4.6c-5.1,0-7.6-5.1-8.4-6.3l0,0
				c-0.8-1.7-2.1-3-3.8-3.8L37.7,95c0.4-4.2,0.8-8,2.1-11.8l10.5-1.3c2.5-0.4,4.6-1.7,5.5-3.8l0,0c1.3-2.1,0.8-4.6-0.4-6.7L49.9,63
				c2.5-3.4,5.1-6.3,8.4-9.3l9.7,4.6c2.1,0.8,4.2,0.8,5.9-0.4l0,0c1.7-1.3,3-3.4,3-5.5l-0.4-10.5c3.8-1.7,8-2.5,12.2-3.4l5.9,9.7
				c0.8,1.7,2.5,2.5,4.2,2.5h0.4h0.4c1.7,0,3.4-0.8,4.2-2.5l5.9-9.7c4.2,0.8,8.4,2.1,12.2,3.4l-0.4,10.5
				C121.6,52.4,122,53.7,122.8,54.5z"/>
		</g>
	</g>
</g>
</svg>
